<?xml version="1.0" encoding="UTF-8"?> <svg xmlns="http://www.w3.org/2000/svg" width="122.019" height="54.659" viewBox="0 0 122.019 54.659"><path d="M100.3,0h0c.325,0,.586.5.586,1.117V53.542c0,.6-.261,1.117-.586,1.117h0c-.322,0-.583-.5-.583-1.117V1.117C99.72.5,99.981,0,100.3,0Z" transform="translate(-71.76)" fill="#373435" fill-rule="evenodd"></path><path d="M119.18,31.23l8.759-10.452H119.5V17.383h12.9v2.892l-8.336,10.452H132.5v3.4H119.16V31.23Zm18.651,3.135a4.743,4.743,0,0,1-1.716-.3,3.81,3.81,0,0,1-1.351-.837,3.923,3.923,0,0,1-.908-1.245,3.708,3.708,0,0,1-.322-1.569,3.488,3.488,0,0,1,.384-1.675,3.773,3.773,0,0,1,1.122-1.306,5.207,5.207,0,0,1,1.682-.837,7.3,7.3,0,0,1,2.162-.3,9.5,9.5,0,0,1,1.514.12,5.345,5.345,0,0,1,1.27.382v-.558c0-1.429-.841-2.152-2.481-2.152a5.571,5.571,0,0,0-1.94.343,8.224,8.224,0,0,0-1.937,1.025L134.186,23.1a9.656,9.656,0,0,1,2.565-1.206,9.947,9.947,0,0,1,2.832-.391,6.512,6.512,0,0,1,4.36,1.329,4.8,4.8,0,0,1,1.534,3.858v3.177a1.219,1.219,0,0,0,.182.782.843.843,0,0,0,.625.262v3.177a8.933,8.933,0,0,1-.908.159c-.264.02-.5.042-.726.042a2.614,2.614,0,0,1-1.615-.424,1.849,1.849,0,0,1-.687-1.164l-.081-.558a5.664,5.664,0,0,1-1.977,1.627,5.347,5.347,0,0,1-2.423.558Zm1.122-2.713a3.437,3.437,0,0,0,1.192-.221,2.866,2.866,0,0,0,.97-.558,1.174,1.174,0,0,0,.544-.9V28.779a7.662,7.662,0,0,0-1.068-.3,5.155,5.155,0,0,0-1.071-.1,3.024,3.024,0,0,0-1.716.461,1.461,1.461,0,0,0-.667,1.228,1.427,1.427,0,0,0,.527,1.117,2.033,2.033,0,0,0,1.332.441Zm16.8-6.672a7.516,7.516,0,0,0-2.484.441,3.063,3.063,0,0,0-1.626,1.267v7.437h-3.8V21.744h3.474v2.493a5.084,5.084,0,0,1,1.654-1.954,3.768,3.768,0,0,1,2.139-.723h.384a1.028,1.028,0,0,1,.244.02Zm1.27,9.145V21.744h3.8V34.124Zm0-13.788V16.92h3.8v3.417Zm6.168,15.658c.322.1.606.179.889.24a5.808,5.808,0,0,0,.746.081,1.337,1.337,0,0,0,1.071-.463,4.59,4.59,0,0,0,.687-1.675l-4.767-12.395h3.925l2.888,9.145,2.484-9.145h3.552l-4.755,14.39a4.941,4.941,0,0,1-4.811,3.459,5.538,5.538,0,0,1-.967-.081,6.683,6.683,0,0,1-.99-.262V36.053Zm16.189-1.63a4.734,4.734,0,0,1-1.716-.3,3.81,3.81,0,0,1-1.351-.837,3.923,3.923,0,0,1-.908-1.245,3.707,3.707,0,0,1-.322-1.569,3.488,3.488,0,0,1,.384-1.675,3.773,3.773,0,0,1,1.122-1.306,5.207,5.207,0,0,1,1.682-.837,7.28,7.28,0,0,1,2.159-.3,9.451,9.451,0,0,1,1.514.12,5.381,5.381,0,0,1,1.273.382v-.558c0-1.429-.827-2.152-2.484-2.152a5.568,5.568,0,0,0-1.937.343,8.224,8.224,0,0,0-1.937,1.024L175.733,23.1a9.678,9.678,0,0,1,2.543-1.195,9.96,9.96,0,0,1,2.8-.4,6.49,6.49,0,0,1,4.363,1.329,4.8,4.8,0,0,1,1.534,3.858v3.177a1.218,1.218,0,0,0,.182.782.843.843,0,0,0,.65.254v3.185a8.932,8.932,0,0,1-.908.159c-.264.02-.5.042-.726.042a2.614,2.614,0,0,1-1.615-.424,1.849,1.849,0,0,1-.687-1.164l-.081-.558a5.65,5.65,0,0,1-1.979,1.627,5.347,5.347,0,0,1-2.423.558Zm1.122-2.713a3.437,3.437,0,0,0,1.192-.221,2.866,2.866,0,0,0,.97-.558,1.174,1.174,0,0,0,.544-.9V28.779a7.6,7.6,0,0,0-1.071-.3,5.114,5.114,0,0,0-1.068-.1,3.024,3.024,0,0,0-1.716.461,1.453,1.453,0,0,0-.667,1.228,1.432,1.432,0,0,0,.524,1.117,2.047,2.047,0,0,0,1.312.449Zm12.435,2.713a4.743,4.743,0,0,1-1.761-.3,3.81,3.81,0,0,1-1.351-.837,3.923,3.923,0,0,1-.892-1.231,3.707,3.707,0,0,1-.322-1.569,3.488,3.488,0,0,1,.384-1.675,3.773,3.773,0,0,1,1.122-1.306,5.207,5.207,0,0,1,1.682-.837,7.294,7.294,0,0,1,2.159-.3,9.45,9.45,0,0,1,1.514.12,5.381,5.381,0,0,1,1.273.382v-.558c0-1.429-.827-2.152-2.484-2.152a5.568,5.568,0,0,0-1.963.341,8.225,8.225,0,0,0-1.937,1.025l-1.122-2.353A9.655,9.655,0,0,1,191.8,21.9a9.941,9.941,0,0,1,2.823-.4,6.523,6.523,0,0,1,4.363,1.329,4.8,4.8,0,0,1,1.534,3.858v3.177a1.219,1.219,0,0,0,.182.782.843.843,0,0,0,.625.262v3.177a8.933,8.933,0,0,1-.9.165c-.264.02-.5.042-.726.042a2.613,2.613,0,0,1-1.615-.424A1.849,1.849,0,0,1,197.4,32.7l-.081-.558a5.65,5.65,0,0,1-1.98,1.627,5.347,5.347,0,0,1-2.42.558Zm1.122-2.713a3.437,3.437,0,0,0,1.192-.221,2.866,2.866,0,0,0,.97-.558,1.174,1.174,0,0,0,.544-.9V28.779a7.6,7.6,0,0,0-1.1-.3,5.114,5.114,0,0,0-1.068-.1,3.024,3.024,0,0,0-1.736.461,1.461,1.461,0,0,0-.667,1.228,1.427,1.427,0,0,0,.527,1.117,2.033,2.033,0,0,0,1.332.441Z" transform="translate(-85.75 -12.197)" fill="#373435"></path><path d="M415.61,35.639h-.956v2.512h-.726V35.639h-.967V35H415.6v.642Zm2.846,2.512V36.284l-.687,1.365h-.381l-.687-1.365v1.868h-.726V35.017h.785l.808,1.658.841-1.65h.785v3.127Z" transform="translate(-297.173 -25.23)" fill="#373435"></path><path d="M56.983,77.56c0-.159-.039-.179-.039-.321h.081A2.971,2.971,0,0,0,54.54,75.31h-.322a3.353,3.353,0,0,0-2,1.066,4.053,4.053,0,0,0-.889,2.11h.081l-.039.221c.28-.02.908-.645,1.6-1.047a2.812,2.812,0,0,1,1.15-.38h.322a2.029,2.029,0,0,1,.869.221,18.607,18.607,0,0,0,1.876,1.086c-.1-.142-.625-.324-.4-.4l-.241-.262.14-.061-.241-.461.443.36c.081-.14.062.022.062-.159V77.56Z" transform="translate(-36.938 -54.287)" fill="#bf1e2e" fill-rule="evenodd"></path><path d="M35.551,93.344a1.475,1.475,0,0,1,.081-.142,2.187,2.187,0,0,0-1.4-.4h-.081c-.928,0-3.289,1.186-3.289,2.373l.222-.14-.182.581.2.061c0-.24,0-.341.222-.363l-.1.444.2.039.062-.12.16.061v.12h.143c.081,0,.081-.02.14-.042.042.123.042.382.2.382l.163-.2a.354.354,0,0,0,.222.081,2.078,2.078,0,0,0,.364-.583h.079A16.668,16.668,0,0,0,34.7,100.24a15.922,15.922,0,0,0,2.826,3.6c1.9,1.909,5.591,3.417,9.446,3.417h.1v-2.069h-.779a11.212,11.212,0,0,1-7.144-2.535c-.426-.422-.807-.782-1.211-1.206s-.707-.9-1.071-1.365a8.981,8.981,0,0,1-.917-1.53,9.62,9.62,0,0,0-.746-1.63l.14.444a9.2,9.2,0,0,1-.687-2.152l-.222-.179.807,2.792c-.28-.02-.889-2.311-.889-2.814h-.221c0,.2.081.382.081.583-.485-.02-.042-.542-.561-.583l.1.558-.222-.583a1.626,1.626,0,0,1,.667-.14h.182c.443,0,.866.5,1.211.5h.14c0-.382-.586-.2-.586-.544,0-.081.081-.039.081-.181,0-.078-.062-.078-.14-.078.02-.262.606-.022.606-.243,0-.12-.628-.26-.648-.483.222.022.163.081.365.081h.14c.042-.159.081-.159.081-.321s-.081-.14-.081-.262Z" transform="translate(-22.207 -66.894)" fill="#bf1e2e" fill-rule="evenodd"></path><path d="M0,37.255v-2.01c.02-.039.2-2.35.222-2.551A16.406,16.406,0,0,1,.667,30.4a24,24,0,0,1,1.4-4.078,23.738,23.738,0,0,1,4.419-6.532,23.073,23.073,0,0,1,6.379-4.642,30.7,30.7,0,0,1,3.979-1.507c.746-.223,1.472-.3,2.26-.483.1-.02.423-.061.807-.1V11.45l4.938,3.738-4.884,3.777V16.907A19.353,19.353,0,0,0,9.407,22.382,18.723,18.723,0,0,0,3.925,35.689,18.977,18.977,0,0,0,9.446,48.955,19.233,19.233,0,0,0,22.624,54.56h.039c.5,0,1.234-.02,2.181-.1V58.7l-2.908-.059c-.039-.02-2.3-.243-2.481-.262a16.888,16.888,0,0,1-2.243-.461,20.157,20.157,0,0,1-4-1.4,22.331,22.331,0,0,1-3.452-1.99c-.561-.4-1.009-.765-1.534-1.167S7.3,52.48,6.8,52.1a24.086,24.086,0,0,1-2.523-2.914,22.572,22.572,0,0,1-2.019-3.35c-.28-.642-.561-1.245-.808-1.929s-.4-1.346-.665-2.029A16.923,16.923,0,0,1,.3,39.667C.241,39.366.02,37.286,0,37.255Z" transform="translate(0 -8.254)" fill="#be202f" fill-rule="evenodd"></path><path d="M121.793,107.878v-7.8l-2.563-.042.081-.885h6.729l-.079.865-2.484.061v7.8Zm7.531-5.139c.121-.081.261-.162.4-.262a4.159,4.159,0,0,1,.524-.26,2.791,2.791,0,0,1,.586-.2,2.055,2.055,0,0,1,.606-.081,2.108,2.108,0,0,1,.625.1,1.7,1.7,0,0,1,.5.321,1.5,1.5,0,0,1,.342.558,2.144,2.144,0,0,1,.121.762v4.24h-1.682v-3.908a1.474,1.474,0,0,0-.163-.762.626.626,0,0,0-.561-.243,2.463,2.463,0,0,0-.687.142,2.907,2.907,0,0,0-.345.159,1.963,1.963,0,0,0-.322.2v4.422h-1.682v-9.6l1.682-.341v4.321c0,.14-.02.26-.02.4h.02Zm8.6-.8a2.694,2.694,0,0,1,.807.12,1.875,1.875,0,0,1,.726.4,2.184,2.184,0,0,1,.561.745,4.257,4.257,0,0,1,.362,1.164v.081a.44.44,0,0,1-.2.181,1.124,1.124,0,0,1-.342.14c-.143.042-.3.081-.5.12a5.732,5.732,0,0,1-.726.081l-1.839.142v.24a1.717,1.717,0,0,0,.365,1.117,1.309,1.309,0,0,0,1.1.458,3.564,3.564,0,0,0,.625-.061c.221-.039.423-.1.606-.14a3.978,3.978,0,0,0,.524-.181,1.582,1.582,0,0,0,.365-.162l.14.422c-.182.142-.384.262-.606.4a4.538,4.538,0,0,1-.707.382,5.514,5.514,0,0,1-.807.279,3.314,3.314,0,0,1-1.837-.061,2,2,0,0,1-.788-.5,2.51,2.51,0,0,1-.524-.882,4.24,4.24,0,0,1-.182-1.329,4.557,4.557,0,0,1,.221-1.485,2.438,2.438,0,0,1,.606-.985,2.635,2.635,0,0,1,.908-.558,3.539,3.539,0,0,1,1.122-.179Zm-.788.985a.527.527,0,0,0-.121.221,1.442,1.442,0,0,0-.1.363,2.569,2.569,0,0,0-.081.441,3.485,3.485,0,0,0-.02.441l1.836-.078a4.9,4.9,0,0,0-.081-.525,3.9,3.9,0,0,0-.16-.5,1.134,1.134,0,0,0-.28-.38.562.562,0,0,0-.384-.162,1.607,1.607,0,0,0-.3.039.646.646,0,0,0-.28.142Zm12.94.4c-.039-.1-.062-.2-.1-.3a1.944,1.944,0,0,1-.081-.262l-.059-.24-.062.24a2.647,2.647,0,0,1-.081.279c-.039.1-.059.2-.1.321l-1.433,4.522h-1.682l-2.442-8.724h1.778l1.4,5.206c.059.221.121.444.182.684s.1.483.16.684c.062.26.121.5.163.743.081-.279.16-.542.241-.8.081-.221.143-.461.221-.7s.143-.461.2-.642l1.312-4.081h.97l1.351,4.081c.062.181.123.4.2.642s.143.483.2.7c.081.262.163.522.224.8.059-.279.14-.542.2-.8.059-.221.121-.461.179-.7s.123-.461.182-.642l1.354-5.187h1.009l-2.383,8.724H151.5l-1.469-4.564Zm11.95,3.7a3.074,3.074,0,0,0,.6-.095v.4a2.18,2.18,0,0,1-.7.435,3.127,3.127,0,0,1-.423.14,1.481,1.481,0,0,1-.423.061.985.985,0,0,1-.384-.061,1.325,1.325,0,0,1-.28-.159.883.883,0,0,1-.2-.243,1.565,1.565,0,0,1-.14-.26c-.14.1-.28.181-.423.279a2.423,2.423,0,0,1-.423.24,3.287,3.287,0,0,1-.465.181,2.321,2.321,0,0,1-.544.059,1.371,1.371,0,0,1-1.071-.422,1.848,1.848,0,0,1-.4-1.287,2.486,2.486,0,0,1,.121-.8,1.22,1.22,0,0,1,.384-.558,2.058,2.058,0,0,1,.667-.343,4.6,4.6,0,0,1,1.009-.14l1.009-.02v-.837a.64.64,0,0,0-.182-.5,1.019,1.019,0,0,0-.625-.159,3.426,3.426,0,0,0-.729.081,5.21,5.21,0,0,0-.866.26l-.222-.6c.2-.081.4-.181.625-.26s.443-.162.665-.223.465-.12.687-.159a3.993,3.993,0,0,1,.687-.061,2.342,2.342,0,0,1,.687.081.992.992,0,0,1,.5.24.96.96,0,0,1,.3.463,1.832,1.832,0,0,1,.1.7v2.694c0,.623.16.944.463.944Zm-2.058-.279a1.577,1.577,0,0,1-.02-.2c0-.1-.02-.243-.02-.4s-.022-.343-.022-.558v-.642a3.6,3.6,0,0,0-.928.081c-.2.039-.342.1-.384.181a.457.457,0,0,0-.059.14c-.02.081-.02.14-.042.24a1.1,1.1,0,0,0-.02.262v.262a1.915,1.915,0,0,0,.1.642.387.387,0,0,0,.364.24,2.27,2.27,0,0,0,.524-.059,5.038,5.038,0,0,0,.5-.162Zm4.9,3.97a3.166,3.166,0,0,1-.886.8,1.626,1.626,0,0,1-.889.262c-.163,0-.322-.02-.524-.039a2.312,2.312,0,0,1-.446-.1v-.558h.121a1.75,1.75,0,0,0,.707-.181,3.425,3.425,0,0,0,.768-.483c.14-.12.28-.26.465-.441a7.773,7.773,0,0,0,.544-.6c.182-.221.384-.441.561-.684s.342-.461.482-.662c-.221-.684-.463-1.329-.664-1.909s-.423-1.117-.625-1.569-.365-.824-.5-1.117a1.952,1.952,0,0,0-.364-.558.533.533,0,0,0-.264-.159,1.185,1.185,0,0,0-.2-.042h-.039v-.542c.081-.02.163-.039.28-.061s.221-.02.342-.039.244-.02.345-.039a1.487,1.487,0,0,1,.28-.022,1.52,1.52,0,0,1,.446.061.623.623,0,0,1,.322.221,1.984,1.984,0,0,1,.364.558,8.7,8.7,0,0,1,.4.924c.14.363.28.765.443,1.206s.28.924.423,1.4h.02a7.139,7.139,0,0,0,.465-.865,7.7,7.7,0,0,0,.28-.8,3.448,3.448,0,0,0,.14-.8c.02-.26.042-.542.042-.837a4.063,4.063,0,0,0-.062-.522c-.02-.081-.02-.162-.039-.243a.819.819,0,0,0-.042-.159l1.293-.221a1.374,1.374,0,0,1,.081.4,4.641,4.641,0,0,1,.039.5,3.892,3.892,0,0,1-.2,1.265,8.354,8.354,0,0,1-.524,1.267c-.222.422-.443.837-.707,1.265s-.5.837-.746,1.228l-.667,1.024c-.182.279-.322.522-.465.723s-.28.382-.4.558-.28.36-.443.558Zm8.521-7.858-.625-.2v-.341l1.794-1.267h.465l.02,1.025h1.778l-.081.645-.485.059a5.165,5.165,0,0,1-.561.042l-.648.059v3.277a1.074,1.074,0,0,0,.121.522.514.514,0,0,0,.485.221h.264c.1,0,.221-.02.342-.02a2.105,2.105,0,0,0,.345-.039,2.812,2.812,0,0,0,.28-.042v.483a5.243,5.243,0,0,1-.482.279,2.9,2.9,0,0,1-.586.24,3.094,3.094,0,0,1-.625.181,2.973,2.973,0,0,1-.606.061,2.755,2.755,0,0,1-.426-.042.9.9,0,0,1-.381-.159.922.922,0,0,1-.264-.343,1.482,1.482,0,0,1-.1-.581v-4ZM181.079,108a2.954,2.954,0,0,1-2.181-.762,3.093,3.093,0,0,1-.746-2.253,4.1,4.1,0,0,1,.182-1.265,2.329,2.329,0,0,1,.561-.966,2.541,2.541,0,0,1,.928-.6,3.538,3.538,0,0,1,1.273-.221,2.912,2.912,0,0,1,2.2.784,3.076,3.076,0,0,1,.746,2.233,4.023,4.023,0,0,1-.182,1.267,2.317,2.317,0,0,1-.561.963,2.474,2.474,0,0,1-.928.6A3.479,3.479,0,0,1,181.1,108Zm-1.208-3.026a3.915,3.915,0,0,0,.28,1.689.943.943,0,0,0,.928.542,3.4,3.4,0,0,0,.463-.039,1.547,1.547,0,0,0,.365-.12c.062-.02.121-.1.163-.243s.078-.279.121-.461a5.406,5.406,0,0,0,.081-.623c.02-.243.02-.483.02-.726a3.862,3.862,0,0,0-.28-1.675.956.956,0,0,0-.908-.558,3.277,3.277,0,0,0-.465.042.9.9,0,0,0-.4.159.463.463,0,0,0-.16.243,4.107,4.107,0,0,0-.121.461c-.022.181-.042.382-.062.623s-.02.463-.02.7Zm-54.324,14.516v-3.953h-3.774v3.953h-1.7v-8.735h1.7v3.819h3.774v-3.819h1.7v8.735Zm9.04-.877a3.1,3.1,0,0,0,.586-.1v.4a2.04,2.04,0,0,1-.3.24,2.278,2.278,0,0,1-.384.2,3.774,3.774,0,0,1-.423.142,1.6,1.6,0,0,1-.426.059,1.042,1.042,0,0,1-.381-.059,1.332,1.332,0,0,1-.28-.162.782.782,0,0,1-.2-.24,1.729,1.729,0,0,1-.143-.262c-.14.1-.28.181-.423.279a2.173,2.173,0,0,1-.423.24,3.163,3.163,0,0,1-.465.181,2.3,2.3,0,0,1-.544.061,1.374,1.374,0,0,1-1.071-.424,1.857,1.857,0,0,1-.4-1.284,2.472,2.472,0,0,1,.123-.8,1.209,1.209,0,0,1,.381-.558,2.056,2.056,0,0,1,.667-.341,4.446,4.446,0,0,1,1.009-.142l1.009-.02v-.837a.638.638,0,0,0-.182-.5,1.01,1.01,0,0,0-.625-.162,3.4,3.4,0,0,0-.726.081,5.159,5.159,0,0,0-.869.26l-.221-.6c.2-.078.4-.179.625-.26s.446-.162.667-.221.463-.123.687-.162a4.223,4.223,0,0,1,.684-.061,2.441,2.441,0,0,1,.687.081.983.983,0,0,1,.5.243.9.9,0,0,1,.3.461,1.78,1.78,0,0,1,.1.7v2.694c0,.623.163.944.465.944Zm-2.061-.279a1.577,1.577,0,0,1-.02-.2c0-.1-.02-.24-.02-.4s-.02-.341-.02-.542v-.645a3.6,3.6,0,0,0-.928.081c-.2.039-.345.1-.384.181a.479.479,0,0,0-.062.14c-.02.081-.02.142-.039.243a1.248,1.248,0,0,0-.02.26v.262a1.834,1.834,0,0,0,.1.642.384.384,0,0,0,.362.243,2.252,2.252,0,0,0,.524-.061,4.233,4.233,0,0,0,.5-.162Zm5.776-4.187a4.467,4.467,0,0,1,.726-.441,2,2,0,0,1,.889-.181,2.649,2.649,0,0,1,.886.162,2.013,2.013,0,0,1,.749.5,2.51,2.51,0,0,1,.524.882,4.2,4.2,0,0,1,.2,1.329,4.029,4.029,0,0,1-.222,1.346,2.848,2.848,0,0,1-.606,1,2.429,2.429,0,0,1-.97.622,3.628,3.628,0,0,1-1.27.221,2.022,2.022,0,0,1-.485-.039,2.071,2.071,0,0,1-.423-.081v3.7l-1.682.279v-9.664l1.475-.262.179.583Zm2.221,2.311a2.542,2.542,0,0,0-.328-1.463,1.03,1.03,0,0,0-.866-.463,2.109,2.109,0,0,0-.524.061,4.783,4.783,0,0,0-.5.159v3.841a2.575,2.575,0,0,0,.381.059,2.681,2.681,0,0,0,.4.02,2.838,2.838,0,0,0,.586-.059.843.843,0,0,0,.4-.181,1.694,1.694,0,0,0,.3-.664,4.818,4.818,0,0,0,.151-1.326Zm5.409-2.311a4.592,4.592,0,0,1,.726-.441,2.018,2.018,0,0,1,.889-.181,2.677,2.677,0,0,1,.889.162,2,2,0,0,1,.746.5,2.51,2.51,0,0,1,.524.882,4.118,4.118,0,0,1,.2,1.329,3.959,3.959,0,0,1-.221,1.346,2.767,2.767,0,0,1-.606,1,2.418,2.418,0,0,1-.967.623,3.634,3.634,0,0,1-1.273.221,2.033,2.033,0,0,1-.485-.039,2.112,2.112,0,0,1-.423-.081v3.7l-1.682.279v-9.664l1.475-.262.182.583Zm2.221,2.311a2.567,2.567,0,0,0-.322-1.446,1.033,1.033,0,0,0-.869-.463,2.126,2.126,0,0,0-.524.061,5.007,5.007,0,0,0-.5.159v3.841a2.608,2.608,0,0,0,.384.059,2.642,2.642,0,0,0,.4.02,2.838,2.838,0,0,0,.586-.059.863.863,0,0,0,.4-.181,1.694,1.694,0,0,0,.3-.664,4.832,4.832,0,0,0,.146-1.343Zm5.431,3.015H151.9v-5.846h1.682Zm-.869-9.145,1.051,1.086-1.051,1.117-1.049-1.117Zm7.026,9.145v-3.908a1.474,1.474,0,0,0-.163-.762.626.626,0,0,0-.561-.243,1.855,1.855,0,0,0-.325.042,2.184,2.184,0,0,0-.362.1,2.9,2.9,0,0,0-.345.159,1.791,1.791,0,0,0-.322.2v4.422H155.98v-5.857h1.492l.163.684h.02c.121-.081.244-.162.4-.262a4.574,4.574,0,0,1,.524-.26,2.793,2.793,0,0,1,.586-.2,2.055,2.055,0,0,1,.606-.081,2.109,2.109,0,0,1,.625.1,1.683,1.683,0,0,1,.5.321,1.465,1.465,0,0,1,.345.544,2.208,2.208,0,0,1,.121.762v4.254h-1.682Zm6.53-5.966a2.68,2.68,0,0,1,.808.12,1.856,1.856,0,0,1,.726.4,2.117,2.117,0,0,1,.561.745,4.174,4.174,0,0,1,.364,1.164v.081a.47.47,0,0,1-.2.181,1.124,1.124,0,0,1-.345.14c-.14.042-.3.081-.5.12a5.676,5.676,0,0,1-.726.081l-1.837.142v.24a1.715,1.715,0,0,0,.362,1.117,1.312,1.312,0,0,0,1.091.444,3.564,3.564,0,0,0,.625-.061c.224-.039.426-.1.606-.14l.527-.181a1.608,1.608,0,0,0,.362-.162l.143.422c-.182.142-.384.262-.606.4a4.807,4.807,0,0,1-.707.382,5.754,5.754,0,0,1-.807.279,3.325,3.325,0,0,1-1.839-.061,2,2,0,0,1-.785-.5,2.511,2.511,0,0,1-.527-.882,4.246,4.246,0,0,1-.179-1.329,4.485,4.485,0,0,1,.221-1.485,2.38,2.38,0,0,1,.606-.985,2.585,2.585,0,0,1,.908-.558,3.508,3.508,0,0,1,1.122-.179Zm-.788.985a.557.557,0,0,0-.121.221,1.569,1.569,0,0,0-.1.363,3.256,3.256,0,0,0-.081.441,3.488,3.488,0,0,0-.02.441l1.837-.078c-.02-.162-.039-.343-.079-.525a3.894,3.894,0,0,0-.163-.5,1.133,1.133,0,0,0-.28-.38.562.562,0,0,0-.384-.162,1.607,1.607,0,0,0-.3.039.637.637,0,0,0-.28.142Zm9.253,3.054a1.41,1.41,0,0,1-.2.8,3.226,3.226,0,0,1-.485.558l-.3.24a1.521,1.521,0,0,1-.362.221,1.539,1.539,0,0,1-.465.142,2.765,2.765,0,0,1-.606.059,4.955,4.955,0,0,1-1.122-.12,3.279,3.279,0,0,1-.951-.4l.4-1.086c.123.081.264.162.4.262a3.57,3.57,0,0,0,.465.262,4.313,4.313,0,0,0,.5.2,1.757,1.757,0,0,0,.544.078,1.914,1.914,0,0,0,.345-.02.905.905,0,0,0,.261-.1.343.343,0,0,0,.123-.24,2.572,2.572,0,0,0,.039-.422.538.538,0,0,0-.222-.444,2.305,2.305,0,0,0-.547-.279c-.221-.078-.443-.159-.684-.24a2.717,2.717,0,0,1-.687-.321,1.741,1.741,0,0,1-.561-.522,1.461,1.461,0,0,1-.222-.837,1.291,1.291,0,0,1,.2-.684,2.562,2.562,0,0,1,.465-.558,1.911,1.911,0,0,1,.665-.4,2.674,2.674,0,0,1,.841-.142c.28,0,.561.022.866.042s.586.059.841.1l-.182,1.145c-.14-.039-.28-.081-.443-.14a4.073,4.073,0,0,0-.465-.12c-.163-.039-.3-.061-.443-.1a2.816,2.816,0,0,0-.384-.042,1.365,1.365,0,0,0-.322.02,1.127,1.127,0,0,0-.182.061c-.042.02-.062.081-.1.162a1.007,1.007,0,0,0-.042.26.494.494,0,0,0,.224.422,3.323,3.323,0,0,0,.544.279c.221.081.443.162.707.243a4.35,4.35,0,0,1,.707.321,1.679,1.679,0,0,1,.544.522,1.413,1.413,0,0,1,.233.807Zm5.835-.011a1.41,1.41,0,0,1-.2.8,3.354,3.354,0,0,1-.485.558l-.3.24a1.857,1.857,0,0,1-.827.363,2.764,2.764,0,0,1-.606.059,4.955,4.955,0,0,1-1.122-.12,3.28,3.28,0,0,1-.95-.4l.4-1.086c.123.081.264.162.4.262a3.569,3.569,0,0,0,.465.262,4.124,4.124,0,0,0,.5.2,1.745,1.745,0,0,0,.544.078,1.928,1.928,0,0,0,.345-.02.939.939,0,0,0,.261-.1.332.332,0,0,0,.121-.24,2.28,2.28,0,0,0,.042-.422.538.538,0,0,0-.222-.444,2.362,2.362,0,0,0-.547-.279c-.221-.078-.443-.159-.687-.24a2.741,2.741,0,0,1-.684-.321,1.741,1.741,0,0,1-.547-.522,1.46,1.46,0,0,1-.221-.837,1.291,1.291,0,0,1,.2-.684,2.562,2.562,0,0,1,.465-.558,1.911,1.911,0,0,1,.665-.4,2.66,2.66,0,0,1,.841-.142c.28,0,.561.022.866.042s.586.059.841.1l-.182,1.145c-.143-.039-.28-.081-.446-.14l-.463-.12c-.163-.042-.3-.061-.446-.1a2.725,2.725,0,0,0-.381-.042,1.407,1.407,0,0,0-.325.02,1.169,1.169,0,0,0-.179.061c-.042.02-.062.081-.1.162a.9.9,0,0,0-.042.26.5.5,0,0,0,.222.422,3.487,3.487,0,0,0,.547.279c.222.081.443.162.707.243a4.35,4.35,0,0,1,.707.321,1.679,1.679,0,0,1,.544.522,1.413,1.413,0,0,1,.221.823Z" transform="translate(-85.8 -70.636)" fill="#373435"></path></svg> 